<mxfile host="app.diagrams.net" modified="2021-07-13T15:32:19.773Z" agent="5.0 (Windows NT 10.0; Win64; x64) AppleWebKit/537.36 (KHTML, like Gecko) Chrome/91.0.4472.124 Safari/537.36" etag="yP1kJv8r0hZwxz4wn_QJ" version="14.8.5" type="github">
  <diagram id="SOt6hOqMxy0C6qlGUhK7" name="Page-1">
    <mxGraphModel dx="1188" dy="728" grid="1" gridSize="10" guides="1" tooltips="1" connect="1" arrows="1" fold="1" page="1" pageScale="1" pageWidth="827" pageHeight="1169" math="0" shadow="0">
      <root>
        <mxCell id="0" />
        <mxCell id="1" parent="0" />
        <mxCell id="ni5HrSQdNdg5o532436w-1" value="COVP" style="shape=cylinder3;whiteSpace=wrap;html=1;boundedLbl=1;backgroundOutline=1;size=15;" vertex="1" parent="1">
          <mxGeometry x="409" y="470" width="60" height="80" as="geometry" />
        </mxCell>
        <mxCell id="ni5HrSQdNdg5o532436w-2" value="ZICOPSB_ActualCosts" style="rounded=1;whiteSpace=wrap;html=1;" vertex="1" parent="1">
          <mxGeometry x="369" y="330" width="140" height="60" as="geometry" />
        </mxCell>
        <mxCell id="ni5HrSQdNdg5o532436w-4" value="ZCCOCOC_Commitment" style="rounded=1;whiteSpace=wrap;html=1;" vertex="1" parent="1">
          <mxGeometry x="355" y="170" width="170" height="60" as="geometry" />
        </mxCell>
        <mxCell id="ni5HrSQdNdg5o532436w-5" value="" style="shape=flexArrow;endArrow=classic;html=1;" edge="1" parent="1" source="ni5HrSQdNdg5o532436w-1" target="ni5HrSQdNdg5o532436w-2">
          <mxGeometry width="50" height="50" relative="1" as="geometry">
            <mxPoint x="118" y="470" as="sourcePoint" />
            <mxPoint x="168" y="420" as="targetPoint" />
          </mxGeometry>
        </mxCell>
        <mxCell id="ni5HrSQdNdg5o532436w-6" value="" style="shape=flexArrow;endArrow=classic;html=1;" edge="1" parent="1" source="ni5HrSQdNdg5o532436w-2" target="ni5HrSQdNdg5o532436w-4">
          <mxGeometry width="50" height="50" relative="1" as="geometry">
            <mxPoint x="404.20000000000005" y="270" as="sourcePoint" />
            <mxPoint x="508" y="120" as="targetPoint" />
          </mxGeometry>
        </mxCell>
        <mxCell id="ni5HrSQdNdg5o532436w-7" value="" style="endArrow=none;dashed=1;html=1;dashPattern=1 3;strokeWidth=2;" edge="1" parent="1">
          <mxGeometry width="50" height="50" relative="1" as="geometry">
            <mxPoint x="24" y="440" as="sourcePoint" />
            <mxPoint x="804" y="440" as="targetPoint" />
          </mxGeometry>
        </mxCell>
        <mxCell id="ni5HrSQdNdg5o532436w-8" value="&lt;font style=&quot;font-size: 16px&quot;&gt;SAP Table&lt;/font&gt;" style="text;html=1;resizable=0;autosize=1;align=center;verticalAlign=middle;points=[];fillColor=none;strokeColor=none;rounded=0;" vertex="1" parent="1">
          <mxGeometry x="4" y="440" width="90" height="20" as="geometry" />
        </mxCell>
        <mxCell id="ni5HrSQdNdg5o532436w-9" value="" style="endArrow=none;dashed=1;html=1;dashPattern=1 3;strokeWidth=2;" edge="1" parent="1">
          <mxGeometry width="50" height="50" relative="1" as="geometry">
            <mxPoint x="54" y="140" as="sourcePoint" />
            <mxPoint x="814" y="140" as="targetPoint" />
          </mxGeometry>
        </mxCell>
        <mxCell id="ni5HrSQdNdg5o532436w-10" value="&lt;font style=&quot;font-size: 16px&quot;&gt;SAP FACT&lt;/font&gt;" style="text;html=1;resizable=0;autosize=1;align=center;verticalAlign=middle;points=[];fillColor=none;strokeColor=none;rounded=0;" vertex="1" parent="1">
          <mxGeometry x="4" y="280" width="90" height="20" as="geometry" />
        </mxCell>
        <mxCell id="ni5HrSQdNdg5o532436w-11" value="" style="endArrow=none;dashed=1;html=1;dashPattern=1 3;strokeWidth=2;" edge="1" parent="1">
          <mxGeometry width="50" height="50" relative="1" as="geometry">
            <mxPoint x="54" y="280" as="sourcePoint" />
            <mxPoint x="814" y="280" as="targetPoint" />
          </mxGeometry>
        </mxCell>
        <mxCell id="ni5HrSQdNdg5o532436w-12" value="&lt;font style=&quot;font-size: 16px&quot;&gt;SAP Composite&lt;/font&gt;" style="text;html=1;resizable=0;autosize=1;align=center;verticalAlign=middle;points=[];fillColor=none;strokeColor=none;rounded=0;" vertex="1" parent="1">
          <mxGeometry x="4" y="140" width="130" height="20" as="geometry" />
        </mxCell>
        <mxCell id="ni5HrSQdNdg5o532436w-13" value="PRPS" style="shape=cylinder3;whiteSpace=wrap;html=1;boundedLbl=1;backgroundOutline=1;size=15;" vertex="1" parent="1">
          <mxGeometry x="203.5" y="470" width="60" height="80" as="geometry" />
        </mxCell>
        <mxCell id="ni5HrSQdNdg5o532436w-16" value="" style="endArrow=classic;html=1;exitX=0;exitY=0.5;exitDx=0;exitDy=0;exitPerimeter=0;entryX=1;entryY=0.5;entryDx=0;entryDy=0;entryPerimeter=0;" edge="1" parent="1" source="ni5HrSQdNdg5o532436w-1" target="ni5HrSQdNdg5o532436w-13">
          <mxGeometry width="50" height="50" relative="1" as="geometry">
            <mxPoint x="228" y="330" as="sourcePoint" />
            <mxPoint x="278" y="280" as="targetPoint" />
          </mxGeometry>
        </mxCell>
        <mxCell id="ni5HrSQdNdg5o532436w-17" value="OBJNR" style="text;html=1;align=center;verticalAlign=middle;resizable=0;points=[];autosize=1;strokeColor=none;" vertex="1" parent="1">
          <mxGeometry x="305" y="490" width="60" height="20" as="geometry" />
        </mxCell>
        <mxCell id="ni5HrSQdNdg5o532436w-21" value="" style="shape=flexArrow;endArrow=classic;html=1;entryX=0.5;entryY=1;entryDx=0;entryDy=0;" edge="1" parent="1" source="ni5HrSQdNdg5o532436w-13" target="ni5HrSQdNdg5o532436w-33">
          <mxGeometry width="50" height="50" relative="1" as="geometry">
            <mxPoint x="29" y="620" as="sourcePoint" />
            <mxPoint x="225.25" y="390" as="targetPoint" />
          </mxGeometry>
        </mxCell>
        <mxCell id="ni5HrSQdNdg5o532436w-22" value="PSP-Element" style="text;html=1;align=center;verticalAlign=middle;resizable=0;points=[];autosize=1;strokeColor=none;" vertex="1" parent="1">
          <mxGeometry x="188.5" y="565" width="90" height="20" as="geometry" />
        </mxCell>
        <mxCell id="ni5HrSQdNdg5o532436w-27" value="ZFCOCOB_Commitment" style="rounded=1;whiteSpace=wrap;html=1;" vertex="1" parent="1">
          <mxGeometry x="365" y="330" width="150" height="60" as="geometry" />
        </mxCell>
        <mxCell id="ni5HrSQdNdg5o532436w-28" value="COOI" style="shape=cylinder3;whiteSpace=wrap;html=1;boundedLbl=1;backgroundOutline=1;size=15;" vertex="1" parent="1">
          <mxGeometry x="409" y="470" width="60" height="80" as="geometry" />
        </mxCell>
        <mxCell id="ni5HrSQdNdg5o532436w-32" value="ZFMMPOB_PurchaseOrder" style="rounded=1;whiteSpace=wrap;html=1;" vertex="1" parent="1">
          <mxGeometry x="567" y="330" width="170" height="60" as="geometry" />
        </mxCell>
        <mxCell id="ni5HrSQdNdg5o532436w-33" value="ZDPSPRS_WBSElement" style="rounded=1;whiteSpace=wrap;html=1;" vertex="1" parent="1">
          <mxGeometry x="155" y="330" width="157" height="60" as="geometry" />
        </mxCell>
        <mxCell id="ni5HrSQdNdg5o532436w-34" value="" style="shape=flexArrow;endArrow=classic;html=1;" edge="1" parent="1" source="ni5HrSQdNdg5o532436w-33" target="ni5HrSQdNdg5o532436w-4">
          <mxGeometry width="50" height="50" relative="1" as="geometry">
            <mxPoint x="215" y="340" as="sourcePoint" />
            <mxPoint x="265" y="290" as="targetPoint" />
          </mxGeometry>
        </mxCell>
        <mxCell id="ni5HrSQdNdg5o532436w-35" value="" style="shape=flexArrow;endArrow=classic;html=1;" edge="1" parent="1" source="ni5HrSQdNdg5o532436w-32" target="ni5HrSQdNdg5o532436w-4">
          <mxGeometry width="50" height="50" relative="1" as="geometry">
            <mxPoint x="585" y="310" as="sourcePoint" />
            <mxPoint x="635" y="260" as="targetPoint" />
          </mxGeometry>
        </mxCell>
        <mxCell id="ni5HrSQdNdg5o532436w-37" value="&lt;font style=&quot;font-size: 16px&quot;&gt;SAP Consumption&lt;/font&gt;" style="text;html=1;resizable=0;autosize=1;align=center;verticalAlign=middle;points=[];fillColor=none;strokeColor=none;rounded=0;" vertex="1" parent="1">
          <mxGeometry x="4" y="30" width="150" height="20" as="geometry" />
        </mxCell>
        <mxCell id="ni5HrSQdNdg5o532436w-39" value="EKKO" style="shape=cylinder3;whiteSpace=wrap;html=1;boundedLbl=1;backgroundOutline=1;size=15;" vertex="1" parent="1">
          <mxGeometry x="535" y="470" width="60" height="80" as="geometry" />
        </mxCell>
        <mxCell id="ni5HrSQdNdg5o532436w-40" value="EKPO" style="shape=cylinder3;whiteSpace=wrap;html=1;boundedLbl=1;backgroundOutline=1;size=15;" vertex="1" parent="1">
          <mxGeometry x="715" y="470" width="60" height="80" as="geometry" />
        </mxCell>
        <mxCell id="ni5HrSQdNdg5o532436w-41" value="" style="endArrow=classic;html=1;exitX=0;exitY=0.5;exitDx=0;exitDy=0;exitPerimeter=0;entryX=1;entryY=0.5;entryDx=0;entryDy=0;entryPerimeter=0;" edge="1" parent="1" source="ni5HrSQdNdg5o532436w-40" target="ni5HrSQdNdg5o532436w-39">
          <mxGeometry width="50" height="50" relative="1" as="geometry">
            <mxPoint x="675.5" y="594" as="sourcePoint" />
            <mxPoint x="530" y="594" as="targetPoint" />
          </mxGeometry>
        </mxCell>
        <mxCell id="ni5HrSQdNdg5o532436w-42" value="EBELN" style="text;html=1;align=center;verticalAlign=middle;resizable=0;points=[];autosize=1;strokeColor=none;" vertex="1" parent="1">
          <mxGeometry x="630" y="490" width="50" height="20" as="geometry" />
        </mxCell>
        <mxCell id="ni5HrSQdNdg5o532436w-43" value="" style="shape=flexArrow;endArrow=classic;html=1;entryX=0.628;entryY=1.023;entryDx=0;entryDy=0;entryPerimeter=0;exitX=0.387;exitY=0.008;exitDx=0;exitDy=0;exitPerimeter=0;" edge="1" parent="1" source="ni5HrSQdNdg5o532436w-40" target="ni5HrSQdNdg5o532436w-32">
          <mxGeometry width="50" height="50" relative="1" as="geometry">
            <mxPoint x="725" y="470" as="sourcePoint" />
            <mxPoint x="445" y="350" as="targetPoint" />
          </mxGeometry>
        </mxCell>
        <mxCell id="ni5HrSQdNdg5o532436w-44" value="" style="shape=flexArrow;endArrow=classic;html=1;entryX=0.36;entryY=0.983;entryDx=0;entryDy=0;entryPerimeter=0;exitX=0.5;exitY=0;exitDx=0;exitDy=0;exitPerimeter=0;" edge="1" parent="1" source="ni5HrSQdNdg5o532436w-39" target="ni5HrSQdNdg5o532436w-32">
          <mxGeometry width="50" height="50" relative="1" as="geometry">
            <mxPoint x="525" y="470" as="sourcePoint" />
            <mxPoint x="575" y="420" as="targetPoint" />
          </mxGeometry>
        </mxCell>
      </root>
    </mxGraphModel>
  </diagram>
</mxfile>
